<?xml version="1.0" encoding="UTF-8" standalone="no"?>
<!DOCTYPE svg PUBLIC "-//W3C//DTD SVG 1.1//EN" "http://www.w3.org/Graphics/SVG/1.1/DTD/svg11.dtd">
<svg width="100%" height="100%" viewBox="0 0 453 410" version="1.1" xmlns="http://www.w3.org/2000/svg" xmlns:xlink="http://www.w3.org/1999/xlink" xml:space="preserve" xmlns:serif="http://www.serif.com/" style="fill-rule:evenodd;clip-rule:evenodd;stroke-linejoin:round;stroke-miterlimit:2;">
    <g transform="matrix(1,0,0,1,-9994.309589,-1690.153281)">
        <g transform="matrix(1,0,0,1,-0.535433,0)">
            <g transform="matrix(1.221622,0,0,1.221622,9863.66102,1512.881579)">
                <path d="M246.185,371.152L276.585,371.152L276.585,385.952L246.185,385.952L246.185,419.152L268.385,419.152L268.385,433.552L115.785,433.552L115.785,419.152L137.985,419.152L137.985,385.952L107.385,385.952L107.385,371.152L137.985,371.152L137.985,341.414L128.165,358.352L111.385,358.352L139.985,308.952L156.771,308.952L148.894,322.552L265.385,322.552L265.385,336.952L246.185,336.952L246.185,371.152ZM231.585,371.152L231.585,336.952L214.985,336.952L214.985,371.152L231.585,371.152ZM183.785,371.152L200.385,371.152L200.385,336.952L183.785,336.952L183.785,371.152ZM200.385,385.952L183.785,385.952L183.785,419.152L200.385,419.152L200.385,385.952ZM152.585,336.952L152.585,371.152L169.185,371.152L169.185,336.952L152.585,336.952ZM152.585,385.952L152.585,419.152L169.185,419.152L169.185,385.952L152.585,385.952ZM231.585,419.152L231.585,385.952L214.985,385.952L214.985,419.152L231.585,419.152ZM237.139,440.752L253.934,440.752L276.585,479.952L259.732,479.952L237.139,440.752ZM107.985,479.952L131.63,439.152L148.385,439.152L124.793,479.952L107.985,479.952ZM165.062,440.646L181.921,440.646L204.505,479.801L187.636,479.801L165.062,440.646ZM201.471,440.769L218.273,440.769L240.782,479.793L223.98,479.771L201.471,440.769Z" style="fill:white;fill-rule:nonzero;"/>
            </g>
        </g>
        <g transform="matrix(1,0,0,1,-0.535433,0)">
            <g transform="matrix(1.221622,0,0,1.221622,9863.66102,1512.881579)">
                <path d="M353.765,439.076L353.765,422.285L423.985,462.858L423.985,479.654L353.765,439.076ZM363.985,386.752L424.185,421.547L424.185,438.332L363.985,403.543L363.985,386.752ZM423.813,372.352L477.385,465.152L460.572,465.152L407.087,372.352L341.385,372.352L341.376,451.1L327.679,474.813L310.483,474.813L325.776,448.392L325.785,312.752L462.985,312.752L462.985,372.352L423.813,372.352ZM341.385,327.552L341.385,357.552L447.385,357.552L447.385,327.552L341.385,327.552Z" style="fill:white;fill-rule:nonzero;"/>
            </g>
        </g>
        <g transform="matrix(1,0,0,1,-0.535433,0)">
            <g transform="matrix(1,0,0,1,9874.459888,1373.200781)">
                <path d="M246.185,324.615L246.185,342.147L137.985,341.87L137.985,324.354L246.185,324.615ZM262.785,372.006L262.785,389.559L211.058,389.442L164.894,468.825L144.694,468.792L190.767,389.387L121.385,389.205L121.385,371.652L262.785,372.006Z" style="fill:white;fill-rule:nonzero;"/>
            </g>
        </g>
        <g transform="matrix(1,0,0,1,-0.535433,0)">
            <g transform="matrix(1,0,0,1,9832.459888,1372.200781)">
                <path d="M356.291,400.952L338.743,400.952L338.916,355.552L356.408,355.552L356.291,400.952ZM385.495,400.952L367.954,400.952L367.943,355.552L385.636,355.552L385.495,400.952ZM431.102,360.152L451.4,360.152L388.049,469.152L367.723,469.152L431.102,360.152Z" style="fill:white;fill-rule:nonzero;"/>
            </g>
        </g>
        <g transform="matrix(1,0,0,1,-0.535433,0)">
            <g transform="matrix(1,0,0,1,9779.459888,1372.200781)">
                <path d="M667.919,332.312L580.257,332.089L588.498,317.952L568.198,317.952L523.255,395.352L543.512,395.352L570.134,349.623L637.496,349.831L568.205,469.152L588.443,469.152L667.919,332.312Z" style="fill:white;fill-rule:nonzero;"/>
            </g>
        </g>
    </g>
</svg>
